<?xml version="1.0" encoding="utf-8"?>
<svg version="1.1" xmlns:xlink="http://www.w3.org/1999/xlink" width="50px" height="45px" xmlns="http://www.w3.org/2000/svg">
  <g transform="matrix(1 0 0 1 386 -1475 )">
    <path d="M 48.5212053571429 20.334375  C 49.507068452381 22.846875  50 25.96875  50 29.7  C 50 32.8125  48.8188244047619 37.040625  46.4564732142857 42.384375  C 46.4006696428572 42.515625  46.3030133928572 42.740625  46.1635044642857 43.059375  C 46.0239955357143 43.378125  45.8984375 43.659375  45.7868303571429 43.903125  C 45.6752232142857 44.146875  45.5543154761905 44.353125  45.4241071428571 44.521875  C 45.2008928571429 44.840625  44.9404761904762 45  44.6428571428571 45  C 44.3638392857143 45  44.1452752976191 44.90625  43.9871651785714 44.71875  C 43.8290550595238 44.53125  43.75 44.296875  43.75 44.015625  C 43.75 43.846875  43.7732514880952 43.5984375  43.8197544642857 43.2703125  C 43.8662574404762 42.9421875  43.8895089285714 42.721875  43.8895089285714 42.609375  C 43.9825148809524 41.334375  44.0290178571429 40.18125  44.0290178571429 39.15  C 44.0290178571429 37.25625  43.8662574404762 35.559375  43.5407366071429 34.059375  C 43.2152157738095 32.559375  42.7641369047619 31.2609375  42.1875 30.1640625  C 41.6108630952381 29.0671875  40.8668154761905 28.1203125  39.9553571428571 27.3234375  C 39.0438988095238 26.5265625  38.0626860119048 25.875  37.01171875 25.36875  C 35.9607514880952 24.8625  34.7237723214286 24.4640625  33.30078125 24.1734375  C 31.8777901785714 23.8828125  30.4454985119048 23.68125  29.00390625 23.56875  C 27.5623139880952 23.45625  25.9300595238095 23.4  24.1071428571429 23.4  L 17.8571428571429 23.4  L 17.8571428571429 30.6  C 17.8571428571429 31.0875  17.6804315476191 31.509375  17.3270089285714 31.865625  C 16.9735863095238 32.221875  16.5550595238095 32.4  16.0714285714286 32.4  C 15.5877976190476 32.4  15.1692708333333 32.221875  14.8158482142857 31.865625  L 0.530133928571429 17.465625  C 0.17671130952381 17.109375  0 16.6875  0 16.2  C 0 15.7125  0.17671130952381 15.290625  0.530133928571429 14.934375  L 14.8158482142857 0.534374999999999  C 15.1692708333333 0.178124999999998  15.5877976190476 0  16.0714285714286 0  C 16.5550595238095 0  16.9735863095238 0.178124999999998  17.3270089285714 0.534374999999999  C 17.6804315476191 0.890624999999994  17.8571428571429 1.3125  17.8571428571429 1.8  L 17.8571428571429 9  L 24.1071428571429 9  C 37.3697916666667 9  45.5078125 12.778125  48.5212053571429 20.334375  Z " fill-rule="nonzero" fill="#000000" stroke="none" transform="matrix(1 0 0 1 -386 1475 )" />
  </g>
</svg>