<?xml version="1.0" encoding="utf-8"?>
<svg version="1.1" xmlns:xlink="http://www.w3.org/1999/xlink" width="50px" height="42px" xmlns="http://www.w3.org/2000/svg">
  <defs>
    <mask fill="white" id="clip72">
      <path d="M 18.0889423076923 35.4971590909091  C 18.8501602564103 36.2528409090909  19.2307692307692 37.1477272727273  19.2307692307692 38.1818181818182  C 19.2307692307692 39.2159090909091  18.8501602564103 40.1107954545455  18.0889423076923 40.8664772727273  C 17.3277243589744 41.6221590909091  16.4262820512821 42  15.3846153846154 42  C 14.3429487179487 42  13.4415064102564 41.6221590909091  12.6802884615385 40.8664772727273  C 11.9190705128205 40.1107954545455  11.5384615384615 39.2159090909091  11.5384615384615 38.1818181818182  C 11.5384615384615 37.1477272727273  11.9190705128205 36.2528409090909  12.6802884615385 35.4971590909091  C 13.4415064102564 34.7414772727273  14.3429487179487 34.3636363636364  15.3846153846154 34.3636363636364  C 16.4262820512821 34.3636363636364  17.3277243589744 34.7414772727273  18.0889423076923 35.4971590909091  Z M 45.0120192307692 35.4971590909091  C 45.7732371794872 36.2528409090909  46.1538461538462 37.1477272727273  46.1538461538462 38.1818181818182  C 46.1538461538462 39.2159090909091  45.7732371794872 40.1107954545455  45.0120192307692 40.8664772727273  C 44.2508012820513 41.6221590909091  43.349358974359 42  42.3076923076923 42  C 41.2660256410256 42  40.3645833333333 41.6221590909091  39.6033653846154 40.8664772727273  C 38.8421474358974 40.1107954545455  38.4615384615385 39.2159090909091  38.4615384615385 38.1818181818182  C 38.4615384615385 37.1477272727273  38.8421474358974 36.2528409090909  39.6033653846154 35.4971590909091  C 40.3645833333333 34.7414772727273  41.2660256410256 34.3636363636364  42.3076923076923 34.3636363636364  C 43.349358974359 34.3636363636364  44.2508012820513 34.7414772727273  45.0120192307692 35.4971590909091  Z M 49.4290865384615 4.38494318181818  C 49.8096955128205 4.76278409090909  50 5.21022727272727  50 5.72727272727273  L 50 21  C 50 21.4772727272727  49.8347355769231 21.8998579545455  49.5042067307692 22.2677556818182  C 49.1736778846154 22.6356534090909  48.7680288461538 22.8494318181818  48.2872596153846 22.9090909090909  L 16.9170673076923 26.5482954545455  C 17.177483974359 27.7414772727273  17.3076923076923 28.4375  17.3076923076923 28.6363636363636  C 17.3076923076923 28.9545454545454  17.0673076923077 29.5909090909091  16.5865384615385 30  L 44.2307692307692 30  C 44.7516025641026 30.5454545454545  45.2023237179487 30.734375  45.5829326923077 31.1122159090909  C 45.9635416666667 31.4900568181818  46.1538461538462 31.9375  46.1538461538462 32.4545454545455  C 46.1538461538462 32.9715909090909  45.9635416666667 33.4190340909091  45.5829326923077 33.796875  C 45.2023237179487 34.1747159090909  44.7516025641026 34.3636363636364  44.2307692307692 34  L 13.4615384615385 34  C 12.9407051282051 34.3636363636364  12.489983974359 34.1747159090909  12.109375 33.796875  C 11.728766025641 33.4190340909091  11.5384615384615 32.9715909090909  11.5384615384615 32.4545454545455  C 11.5384615384615 32.2357954545455  11.6185897435897 31.9225852272727  11.7788461538462 31.5149147727273  C 11.9391025641026 31.1072443181818  12.099358974359 30.7492897727273  12.2596153846154 30.4410511363636  C 12.4198717948718 30.1328125  12.6352163461538 29.7350852272727  12.9056490384615 29.2478693181818  C 13.1760817307692 28.7606534090909  13.3313301282051 28.4673295454545  13.3713942307692 28.3678977272727  L 8.05288461538462 3.81818181818182  L 1.92307692307692 3.81818181818182  C 1.40224358974359 3.81818181818182  0.951522435897436 3.62926136363636  0.570913461538461 3.25142045454545  C 0.190304487179487 2.87357954545454  0 2.42613636363636  0 1.90909090909091  C 0 1.39204545454545  0.190304487179487 0.944602272727267  0.570913461538461 0.566761363636366  C 0.951522435897436 0.188920454545451  1.40224358974359 0  1.92307692307692 0  L 9.61538461538462 0  C 9.93589743589744 0  10.2213541666667 0.064630681818179  10.4717548076923 0.193892045454546  C 10.722155448718 0.323153409090909  10.917467948718 0.477272727272727  11.0576923076923 0.65625  C 11.1979166666667 0.835227272727273  11.328125 1.07883522727272  11.4483173076923 1.38707386363637  C 11.5685096153846 1.6953125  11.6486378205128 1.95383522727273  11.6887019230769 2.16264204545455  C 11.728766025641 2.37144886363637  11.7838541666667 2.66477272727272  11.8539663461538 3.04261363636363  C 11.924078525641 3.42045454545454  11.9691506410256 3.67897727272727  11.9891826923077 4  L 48.0769230769231 4  C 48.5977564102564 3.81818181818182  49.0484775641026 4.00710227272727  49.4290865384615 4.38494318181818  Z " fill-rule="evenodd" />
    </mask>
  </defs>
  <g transform="matrix(1 0 0 1 -1905 -1599 )">
    <path d="M 18.0889423076923 35.4971590909091  C 18.8501602564103 36.2528409090909  19.2307692307692 37.1477272727273  19.2307692307692 38.1818181818182  C 19.2307692307692 39.2159090909091  18.8501602564103 40.1107954545455  18.0889423076923 40.8664772727273  C 17.3277243589744 41.6221590909091  16.4262820512821 42  15.3846153846154 42  C 14.3429487179487 42  13.4415064102564 41.6221590909091  12.6802884615385 40.8664772727273  C 11.9190705128205 40.1107954545455  11.5384615384615 39.2159090909091  11.5384615384615 38.1818181818182  C 11.5384615384615 37.1477272727273  11.9190705128205 36.2528409090909  12.6802884615385 35.4971590909091  C 13.4415064102564 34.7414772727273  14.3429487179487 34.3636363636364  15.3846153846154 34.3636363636364  C 16.4262820512821 34.3636363636364  17.3277243589744 34.7414772727273  18.0889423076923 35.4971590909091  Z M 45.0120192307692 35.4971590909091  C 45.7732371794872 36.2528409090909  46.1538461538462 37.1477272727273  46.1538461538462 38.1818181818182  C 46.1538461538462 39.2159090909091  45.7732371794872 40.1107954545455  45.0120192307692 40.8664772727273  C 44.2508012820513 41.6221590909091  43.349358974359 42  42.3076923076923 42  C 41.2660256410256 42  40.3645833333333 41.6221590909091  39.6033653846154 40.8664772727273  C 38.8421474358974 40.1107954545455  38.4615384615385 39.2159090909091  38.4615384615385 38.1818181818182  C 38.4615384615385 37.1477272727273  38.8421474358974 36.2528409090909  39.6033653846154 35.4971590909091  C 40.3645833333333 34.7414772727273  41.2660256410256 34.3636363636364  42.3076923076923 34.3636363636364  C 43.349358974359 34.3636363636364  44.2508012820513 34.7414772727273  45.0120192307692 35.4971590909091  Z M 49.4290865384615 4.38494318181818  C 49.8096955128205 4.76278409090909  50 5.21022727272727  50 5.72727272727273  L 50 21  C 50 21.4772727272727  49.8347355769231 21.8998579545455  49.5042067307692 22.2677556818182  C 49.1736778846154 22.6356534090909  48.7680288461538 22.8494318181818  48.2872596153846 22.9090909090909  L 16.9170673076923 26.5482954545455  C 17.177483974359 27.7414772727273  17.3076923076923 28.4375  17.3076923076923 28.6363636363636  C 17.3076923076923 28.9545454545454  17.0673076923077 29.5909090909091  16.5865384615385 30  L 44.2307692307692 30  C 44.7516025641026 30.5454545454545  45.2023237179487 30.734375  45.5829326923077 31.1122159090909  C 45.9635416666667 31.4900568181818  46.1538461538462 31.9375  46.1538461538462 32.4545454545455  C 46.1538461538462 32.9715909090909  45.9635416666667 33.4190340909091  45.5829326923077 33.796875  C 45.2023237179487 34.1747159090909  44.7516025641026 34.3636363636364  44.2307692307692 34  L 13.4615384615385 34  C 12.9407051282051 34.3636363636364  12.489983974359 34.1747159090909  12.109375 33.796875  C 11.728766025641 33.4190340909091  11.5384615384615 32.9715909090909  11.5384615384615 32.4545454545455  C 11.5384615384615 32.2357954545455  11.6185897435897 31.9225852272727  11.7788461538462 31.5149147727273  C 11.9391025641026 31.1072443181818  12.099358974359 30.7492897727273  12.2596153846154 30.4410511363636  C 12.4198717948718 30.1328125  12.6352163461538 29.7350852272727  12.9056490384615 29.2478693181818  C 13.1760817307692 28.7606534090909  13.3313301282051 28.4673295454545  13.3713942307692 28.3678977272727  L 8.05288461538462 3.81818181818182  L 1.92307692307692 3.81818181818182  C 1.40224358974359 3.81818181818182  0.951522435897436 3.62926136363636  0.570913461538461 3.25142045454545  C 0.190304487179487 2.87357954545454  0 2.42613636363636  0 1.90909090909091  C 0 1.39204545454545  0.190304487179487 0.944602272727267  0.570913461538461 0.566761363636366  C 0.951522435897436 0.188920454545451  1.40224358974359 0  1.92307692307692 0  L 9.61538461538462 0  C 9.93589743589744 0  10.2213541666667 0.064630681818179  10.4717548076923 0.193892045454546  C 10.722155448718 0.323153409090909  10.917467948718 0.477272727272727  11.0576923076923 0.65625  C 11.1979166666667 0.835227272727273  11.328125 1.07883522727272  11.4483173076923 1.38707386363637  C 11.5685096153846 1.6953125  11.6486378205128 1.95383522727273  11.6887019230769 2.16264204545455  C 11.728766025641 2.37144886363637  11.7838541666667 2.66477272727272  11.8539663461538 3.04261363636363  C 11.924078525641 3.42045454545454  11.9691506410256 3.67897727272727  11.9891826923077 4  L 48.0769230769231 4  C 48.5977564102564 3.81818181818182  49.0484775641026 4.00710227272727  49.4290865384615 4.38494318181818  Z " fill-rule="nonzero" fill="#000000" stroke="none" transform="matrix(1 0 0 1 1905 1599 )" />
    <path d="M 18.0889423076923 35.4971590909091  C 18.8501602564103 36.2528409090909  19.2307692307692 37.1477272727273  19.2307692307692 38.1818181818182  C 19.2307692307692 39.2159090909091  18.8501602564103 40.1107954545455  18.0889423076923 40.8664772727273  C 17.3277243589744 41.6221590909091  16.4262820512821 42  15.3846153846154 42  C 14.3429487179487 42  13.4415064102564 41.6221590909091  12.6802884615385 40.8664772727273  C 11.9190705128205 40.1107954545455  11.5384615384615 39.2159090909091  11.5384615384615 38.1818181818182  C 11.5384615384615 37.1477272727273  11.9190705128205 36.2528409090909  12.6802884615385 35.4971590909091  C 13.4415064102564 34.7414772727273  14.3429487179487 34.3636363636364  15.3846153846154 34.3636363636364  C 16.4262820512821 34.3636363636364  17.3277243589744 34.7414772727273  18.0889423076923 35.4971590909091  Z " stroke-width="6" stroke="#020202" fill="none" transform="matrix(1 0 0 1 1905 1599 )" mask="url(#clip72)" />
    <path d="M 45.0120192307692 35.4971590909091  C 45.7732371794872 36.2528409090909  46.1538461538462 37.1477272727273  46.1538461538462 38.1818181818182  C 46.1538461538462 39.2159090909091  45.7732371794872 40.1107954545455  45.0120192307692 40.8664772727273  C 44.2508012820513 41.6221590909091  43.349358974359 42  42.3076923076923 42  C 41.2660256410256 42  40.3645833333333 41.6221590909091  39.6033653846154 40.8664772727273  C 38.8421474358974 40.1107954545455  38.4615384615385 39.2159090909091  38.4615384615385 38.1818181818182  C 38.4615384615385 37.1477272727273  38.8421474358974 36.2528409090909  39.6033653846154 35.4971590909091  C 40.3645833333333 34.7414772727273  41.2660256410256 34.3636363636364  42.3076923076923 34.3636363636364  C 43.349358974359 34.3636363636364  44.2508012820513 34.7414772727273  45.0120192307692 35.4971590909091  Z " stroke-width="6" stroke="#020202" fill="none" transform="matrix(1 0 0 1 1905 1599 )" mask="url(#clip72)" />
    <path d="M 49.4290865384615 4.38494318181818  C 49.8096955128205 4.76278409090909  50 5.21022727272727  50 5.72727272727273  L 50 21  C 50 21.4772727272727  49.8347355769231 21.8998579545455  49.5042067307692 22.2677556818182  C 49.1736778846154 22.6356534090909  48.7680288461538 22.8494318181818  48.2872596153846 22.9090909090909  L 16.9170673076923 26.5482954545455  C 17.177483974359 27.7414772727273  17.3076923076923 28.4375  17.3076923076923 28.6363636363636  C 17.3076923076923 28.9545454545454  17.0673076923077 29.5909090909091  16.5865384615385 30  L 44.2307692307692 30  C 44.7516025641026 30.5454545454545  45.2023237179487 30.734375  45.5829326923077 31.1122159090909  C 45.9635416666667 31.4900568181818  46.1538461538462 31.9375  46.1538461538462 32.4545454545455  C 46.1538461538462 32.9715909090909  45.9635416666667 33.4190340909091  45.5829326923077 33.796875  C 45.2023237179487 34.1747159090909  44.7516025641026 34.3636363636364  44.2307692307692 34  L 13.4615384615385 34  C 12.9407051282051 34.3636363636364  12.489983974359 34.1747159090909  12.109375 33.796875  C 11.728766025641 33.4190340909091  11.5384615384615 32.9715909090909  11.5384615384615 32.4545454545455  C 11.5384615384615 32.2357954545455  11.6185897435897 31.9225852272727  11.7788461538462 31.5149147727273  C 11.9391025641026 31.1072443181818  12.099358974359 30.7492897727273  12.2596153846154 30.4410511363636  C 12.4198717948718 30.1328125  12.6352163461538 29.7350852272727  12.9056490384615 29.2478693181818  C 13.1760817307692 28.7606534090909  13.3313301282051 28.4673295454545  13.3713942307692 28.3678977272727  L 8.05288461538462 3.81818181818182  L 1.92307692307692 3.81818181818182  C 1.40224358974359 3.81818181818182  0.951522435897436 3.62926136363636  0.570913461538461 3.25142045454545  C 0.190304487179487 2.87357954545454  0 2.42613636363636  0 1.90909090909091  C 0 1.39204545454545  0.190304487179487 0.944602272727267  0.570913461538461 0.566761363636366  C 0.951522435897436 0.188920454545451  1.40224358974359 0  1.92307692307692 0  L 9.61538461538462 0  C 9.93589743589744 0  10.2213541666667 0.064630681818179  10.4717548076923 0.193892045454546  C 10.722155448718 0.323153409090909  10.917467948718 0.477272727272727  11.0576923076923 0.65625  C 11.1979166666667 0.835227272727273  11.328125 1.07883522727272  11.4483173076923 1.38707386363637  C 11.5685096153846 1.6953125  11.6486378205128 1.95383522727273  11.6887019230769 2.16264204545455  C 11.728766025641 2.37144886363637  11.7838541666667 2.66477272727272  11.8539663461538 3.04261363636363  C 11.924078525641 3.42045454545454  11.9691506410256 3.67897727272727  11.9891826923077 4  L 48.0769230769231 4  C 48.5977564102564 3.81818181818182  49.0484775641026 4.00710227272727  49.4290865384615 4.38494318181818  Z " stroke-width="6" stroke="#020202" fill="none" transform="matrix(1 0 0 1 1905 1599 )" mask="url(#clip72)" />
  </g>
</svg>