<?xml version="1.0" encoding="utf-8"?>
<svg version="1.1" xmlns:xlink="http://www.w3.org/1999/xlink" width="66px" height="50px" xmlns="http://www.w3.org/2000/svg">
  <defs>
    <mask fill="white" id="clip45">
      <path d="M 56.5130111524164 28.5658612626656  C 56.5402726146221 28.6178228111198  56.5539033457249 28.695765133801  56 28.7996882307093  L 56 47.5058456742011  C 56.5539033457249 48.181345804105  56.2949194547708 48.7659132242141  55.7769516728625 49.2595479345284  C 55.2589838909542 49.7531826448428  54.6456009913259 50  53.9368029739777 50  L 38 50  L 38 35  L 28 35  L 28 50  L 12.0631970260223 50  C 11.3543990086741 50  10.7410161090458 49.7531826448428  10.2230483271375 49.2595479345284  C 9.70508054522925 48.7659132242141  9.44609665427509 48.181345804105  10 47.5058456742011  L 10 28.7996882307093  C 9.44609665427509 28.7737074564822  9.45291201982652 28.7347362951416  9.46654275092937 28.6827747466875  C 9.48017348203222 28.6308131982333  9.48698884758364 28.5918420368927  9.48698884758364 28.5658612626656  L 33 10.0935307872175  L 56.5130111524164 28.5658612626656  Z M 65.9591078066914 25.194855806703  C 65.9863692688972 25.5455962587685  65.8909541511772 25.8508703559366  65.6728624535316 26.1106780982073  L 63.1375464684015 28.9945440374123  C 62.9194547707559 29.228371005456  62.633209417596 29.3712652637049  62.2788104089219 29.423226812159  L 62.1561338289963 29.423226812159  C 61.8017348203222 29.423226812159  61.5154894671623 29.3322941023642  61.2973977695167 29.1504286827747  L 33 6.66406858924396  L 4.70260223048327 29.1504286827747  C 4.37546468401487 29.3582748765913  4.04832713754647 29.4492075863861  3.72118959107807 29.423226812159  C 3.36679058240397 29.3712652637049  3.08054522924411 29.228371005456  2.86245353159851 28.9945440374123  L 0.327137546468401 26.1106780982073  C 0.109045848822801 25.8508703559366  0.0136307311028502 25.5455962587685  0.0408921933085502 25.194855806703  C 0.0681536555142505 24.8441153546376  0.218091697645601 24.5648220316965  0.490706319702602 24.35697583788  L 29.8921933085502 1.01325019485581  C 30.7645600991326 0.337750064951931  31.8004956629492 0  33 0  C 34.1995043370508 0  35.2354399008674 0.337750064951931  36.1078066914498 1.01325019485581  L 46.0855018587361 8.96336710833983  L 46.0855018587361 1.36399064692128  C 46.0855018587361 1.00025980774227  46.2081784386617 0.701480904130941  46.453531598513 0.467653936087298  C 46.6988847583643 0.233826968043649  47.0123915737299 0.116913484021824  47.3940520446097 0.116913484021824  L 55.2453531598513 0.116913484021824  C 55.6270136307311 0.116913484021824  55.9405204460966 0.233826968043649  56.185873605948 0.467653936087298  C 56.4312267657993 0.701480904130941  56.5539033457249 1.00025980774227  56 1.36399064692128  L 56 17.2642244738893  L 65.5092936802974 24.35697583788  C 65.7819083023544 24.5648220316965  65.9318463444858 24.8441153546376  65.9591078066914 25.194855806703  Z " fill-rule="evenodd" />
    </mask>
  </defs>
  <g transform="matrix(1 0 0 1 -1453 -1599 )">
    <path d="M 56.5130111524164 28.5658612626656  C 56.5402726146221 28.6178228111198  56.5539033457249 28.695765133801  56 28.7996882307093  L 56 47.5058456742011  C 56.5539033457249 48.181345804105  56.2949194547708 48.7659132242141  55.7769516728625 49.2595479345284  C 55.2589838909542 49.7531826448428  54.6456009913259 50  53.9368029739777 50  L 38 50  L 38 35  L 28 35  L 28 50  L 12.0631970260223 50  C 11.3543990086741 50  10.7410161090458 49.7531826448428  10.2230483271375 49.2595479345284  C 9.70508054522925 48.7659132242141  9.44609665427509 48.181345804105  10 47.5058456742011  L 10 28.7996882307093  C 9.44609665427509 28.7737074564822  9.45291201982652 28.7347362951416  9.46654275092937 28.6827747466875  C 9.48017348203222 28.6308131982333  9.48698884758364 28.5918420368927  9.48698884758364 28.5658612626656  L 33 10.0935307872175  L 56.5130111524164 28.5658612626656  Z M 65.9591078066914 25.194855806703  C 65.9863692688972 25.5455962587685  65.8909541511772 25.8508703559366  65.6728624535316 26.1106780982073  L 63.1375464684015 28.9945440374123  C 62.9194547707559 29.228371005456  62.633209417596 29.3712652637049  62.2788104089219 29.423226812159  L 62.1561338289963 29.423226812159  C 61.8017348203222 29.423226812159  61.5154894671623 29.3322941023642  61.2973977695167 29.1504286827747  L 33 6.66406858924396  L 4.70260223048327 29.1504286827747  C 4.37546468401487 29.3582748765913  4.04832713754647 29.4492075863861  3.72118959107807 29.423226812159  C 3.36679058240397 29.3712652637049  3.08054522924411 29.228371005456  2.86245353159851 28.9945440374123  L 0.327137546468401 26.1106780982073  C 0.109045848822801 25.8508703559366  0.0136307311028502 25.5455962587685  0.0408921933085502 25.194855806703  C 0.0681536555142505 24.8441153546376  0.218091697645601 24.5648220316965  0.490706319702602 24.35697583788  L 29.8921933085502 1.01325019485581  C 30.7645600991326 0.337750064951931  31.8004956629492 0  33 0  C 34.1995043370508 0  35.2354399008674 0.337750064951931  36.1078066914498 1.01325019485581  L 46.0855018587361 8.96336710833983  L 46.0855018587361 1.36399064692128  C 46.0855018587361 1.00025980774227  46.2081784386617 0.701480904130941  46.453531598513 0.467653936087298  C 46.6988847583643 0.233826968043649  47.0123915737299 0.116913484021824  47.3940520446097 0.116913484021824  L 55.2453531598513 0.116913484021824  C 55.6270136307311 0.116913484021824  55.9405204460966 0.233826968043649  56.185873605948 0.467653936087298  C 56.4312267657993 0.701480904130941  56.5539033457249 1.00025980774227  56 1.36399064692128  L 56 17.2642244738893  L 65.5092936802974 24.35697583788  C 65.7819083023544 24.5648220316965  65.9318463444858 24.8441153546376  65.9591078066914 25.194855806703  Z " fill-rule="nonzero" fill="#ffffff" stroke="none" fill-opacity="0" transform="matrix(1 0 0 1 1453 1599 )" />
    <path d="M 56.5130111524164 28.5658612626656  C 56.5402726146221 28.6178228111198  56.5539033457249 28.695765133801  56 28.7996882307093  L 56 47.5058456742011  C 56.5539033457249 48.181345804105  56.2949194547708 48.7659132242141  55.7769516728625 49.2595479345284  C 55.2589838909542 49.7531826448428  54.6456009913259 50  53.9368029739777 50  L 38 50  L 38 35  L 28 35  L 28 50  L 12.0631970260223 50  C 11.3543990086741 50  10.7410161090458 49.7531826448428  10.2230483271375 49.2595479345284  C 9.70508054522925 48.7659132242141  9.44609665427509 48.181345804105  10 47.5058456742011  L 10 28.7996882307093  C 9.44609665427509 28.7737074564822  9.45291201982652 28.7347362951416  9.46654275092937 28.6827747466875  C 9.48017348203222 28.6308131982333  9.48698884758364 28.5918420368927  9.48698884758364 28.5658612626656  L 33 10.0935307872175  L 56.5130111524164 28.5658612626656  Z " stroke-width="4" stroke="#ffffff" fill="none" transform="matrix(1 0 0 1 1453 1599 )" mask="url(#clip45)" />
    <path d="M 65.9591078066914 25.194855806703  C 65.9863692688972 25.5455962587685  65.8909541511772 25.8508703559366  65.6728624535316 26.1106780982073  L 63.1375464684015 28.9945440374123  C 62.9194547707559 29.228371005456  62.633209417596 29.3712652637049  62.2788104089219 29.423226812159  L 62.1561338289963 29.423226812159  C 61.8017348203222 29.423226812159  61.5154894671623 29.3322941023642  61.2973977695167 29.1504286827747  L 33 6.66406858924396  L 4.70260223048327 29.1504286827747  C 4.37546468401487 29.3582748765913  4.04832713754647 29.4492075863861  3.72118959107807 29.423226812159  C 3.36679058240397 29.3712652637049  3.08054522924411 29.228371005456  2.86245353159851 28.9945440374123  L 0.327137546468401 26.1106780982073  C 0.109045848822801 25.8508703559366  0.0136307311028502 25.5455962587685  0.0408921933085502 25.194855806703  C 0.0681536555142505 24.8441153546376  0.218091697645601 24.5648220316965  0.490706319702602 24.35697583788  L 29.8921933085502 1.01325019485581  C 30.7645600991326 0.337750064951931  31.8004956629492 0  33 0  C 34.1995043370508 0  35.2354399008674 0.337750064951931  36.1078066914498 1.01325019485581  L 46.0855018587361 8.96336710833983  L 46.0855018587361 1.36399064692128  C 46.0855018587361 1.00025980774227  46.2081784386617 0.701480904130941  46.453531598513 0.467653936087298  C 46.6988847583643 0.233826968043649  47.0123915737299 0.116913484021824  47.3940520446097 0.116913484021824  L 55.2453531598513 0.116913484021824  C 55.6270136307311 0.116913484021824  55.9405204460966 0.233826968043649  56.185873605948 0.467653936087298  C 56.4312267657993 0.701480904130941  56.5539033457249 1.00025980774227  56 1.36399064692128  L 56 17.2642244738893  L 65.5092936802974 24.35697583788  C 65.7819083023544 24.5648220316965  65.9318463444858 24.8441153546376  65.9591078066914 25.194855806703  Z " stroke-width="4" stroke="#ffffff" fill="none" transform="matrix(1 0 0 1 1453 1599 )" mask="url(#clip45)" />
  </g>
</svg>