<?xml version="1.0" encoding="utf-8"?>
<svg version="1.1" xmlns:xlink="http://www.w3.org/1999/xlink" width="42px" height="50px" xmlns="http://www.w3.org/2000/svg">
  <g transform="matrix(1 0 0 1 -299 -1753 )">
    <path d="M 41.72109375 36.1490885416667  C 41.90703125 37.7875434027778  42 39.5290798611111  42 41.3736979166667  C 42 43.7391493055556  41.31640625 45.7682291666667  39.94921875 47.4609375  C 38.58203125 49.1536458333333  36.9359375 50  35.0109375 50  L 6.9890625 50  C 5.0640625 50  3.41796875 49.1536458333333  2.05078125 47.4609375  C 0.68359375 45.7682291666667  0 43.7391493055556  0 41.3736979166667  C 0 39.5290798611111  0.0929687500000002 37.7875434027778  0.27890625 36.1490885416667  C 0.46484375 34.5106336805556  0.809375 32.861328125  1.3125 31.201171875  C 1.815625 29.541015625  2.45546875 28.1195746527778  3.23203125 26.9368489583333  C 4.00859375 25.7541232638889  5.03671875 24.7884114583333  6.31640625 24.0397135416667  C 7.59609375 23.291015625  9.0671875 22.9166666666667  10.7296875 22.9166666666667  C 13.5953125 25.6944444444444  17.01875 27.0833333333333  21 27.0833333333333  C 24.98125 27.0833333333333  28.4046875 25.6944444444444  31.2703125 22.9166666666667  C 32.9328125 22.9166666666667  34.40390625 23.291015625  35.68359375 24.0397135416667  C 36.96328125 24.7884114583333  37.99140625 25.7541232638889  38.76796875 26.9368489583333  C 39.54453125 28.1195746527778  40.184375 29.541015625  40.6875 31.201171875  C 41.190625 32.861328125  41.53515625 34.5106336805556  41.72109375 36.1490885416667  Z M 29.90859375 3.662109375  C 32.36953125 6.103515625  33.6 9.04947916666667  33.6 12.5  C 33.6 15.9505208333333  32.36953125 18.896484375  29.90859375 21.337890625  C 27.44765625 23.779296875  24.478125 25  21 25  C 17.521875 25  14.55234375 23.779296875  12.09140625 21.337890625  C 9.63046875 18.896484375  8.4 15.9505208333333  8.4 12.5  C 8.4 9.04947916666667  9.63046875 6.103515625  12.09140625 3.662109375  C 14.55234375 1.220703125  17.521875 0  21 0  C 24.478125 0  27.44765625 1.220703125  29.90859375 3.662109375  Z " fill-rule="nonzero" fill="#000000" stroke="none" fill-opacity="0.996078431372549" transform="matrix(1 0 0 1 299 1753 )" />
  </g>
</svg>