<?xml version="1.0" encoding="utf-8"?>
<svg version="1.1" xmlns:xlink="http://www.w3.org/1999/xlink" width="50px" height="48px" xmlns="http://www.w3.org/2000/svg">
  <defs>
    <mask fill="white" id="clip9">
      <path d="M 37.890625 43.59  C 38.271233974359 43.21  38.4615384615385 42.76  38.4615384615385 42.24  C 38.4615384615385 41.72  38.271233974359 41.27  37.890625 40.89  C 37.510016025641 40.51  37.0592948717949 40.32  36.5384615384615 40.32  C 36.0176282051282 40.32  35.5669070512821 40.51  35.1862980769231 40.89  C 34.8056891025641 41.27  34.6153846153846 41.72  34.6153846153846 42.24  C 34.6153846153846 42.76  34.8056891025641 43.21  35.1862980769231 43.59  C 35.5669070512821 43.97  36.0176282051282 44.16  36.5384615384615 44.16  C 37.0592948717949 44.16  37.510016025641 43.97  37.890625 43.59  Z M 45.5829326923077 43.59  C 45.9635416666667 43.21  46.1538461538462 42.76  46.1538461538462 42.24  C 46.1538461538462 41.72  45.9635416666667 41.27  45.5829326923077 40.89  C 45.2023237179487 40.51  44.7516025641026 40.32  44.2307692307692 40.32  C 43.7099358974359 40.32  43.2592147435897 40.51  42.8786057692308 40.89  C 42.4979967948718 41.27  42.3076923076923 41.72  42.3076923076923 42.24  C 42.3076923076923 42.76  42.4979967948718 43.21  42.8786057692308 43.59  C 43.2592147435897 43.97  43.7099358974359 44.16  44.2307692307692 44.16  C 44.7516025641026 44.16  45.2023237179487 43.97  45.5829326923077 43.59  Z M 49.1586538461538 33.48  C 49.7195512820513 34.04  50 34.72  50 35.52  L 50 45.12  C 50 45.92  49.7195512820513 46.6  49.1586538461538 47.16  C 48.5977564102564 47.72  47.9166666666667 48  47.1153846153846 48  L 2.88461538461538 48  C 2.08333333333333 48  1.40224358974359 47.72  0.841346153846154 47.16  C 0.280448717948718 46.6  0 45.92  0 45.12  L 0 35.52  C 0 34.72  0.280448717948718 34.04  0.841346153846154 33.48  C 1.40224358974359 32.92  2.08333333333333 32.64  2.88461538461538 32  L 15.7151442307692 32  C 16.1358173076923 33.76  16.8419471153846 34.68  17.8335336538462 35.4  C 18.8251201923077 36.12  19.931891025641 36.48  21.1538461538462 36.48  L 28.8461538461538 36.48  C 30.068108974359 36.48  31.1748798076923 36.12  32.1664663461538 35.4  C 33.1580528846154 34.68  33.8641826923077 33.76  34.2848557692308 32  L 47.1153846153846 32  C 47.9166666666667 32.64  48.5977564102564 32.92  49.1586538461538 33.48  Z M 39.8137019230769 14.01  C 40.4346955128205 14.61  40.5749198717949 15.3  40.234375 16.08  C 39.8938301282051 16.88  39.3028846153846 17.28  38.4615384615385 17.28  L 30 17.28  L 30 30.72  C 30.7692307692308 31.24  30.5789262820513 31.69  30.1983173076923 32.07  C 29.8177083333333 32.45  29.3669871794872 32.64  28.8461538461538 32.64  L 21.1538461538462 32.64  C 20.6330128205128 32.64  20.1822916666667 32.45  19.8016826923077 32.07  C 19.4210737179487 31.69  19.2307692307692 31.24  20 30.72  L 20 17.28  L 11.5384615384615 17.28  C 10.6971153846154 17.28  10.1061698717949 16.88  9.765625 16.08  C 9.42508012820513 15.3  9.56530448717949 14.61  10.1862980769231 14.01  L 23.6478365384615 0.569999999999999  C 24.0084134615385 0.189999999999998  24.4591346153846 0  25 0  C 25.5408653846154 0  25.9915865384615 0.189999999999998  26.3521634615385 0.569999999999999  L 39.8137019230769 14.01  Z " fill-rule="evenodd" />
    </mask>
  </defs>
  <g transform="matrix(1 0 0 1 -1679 -1599 )">
    <path d="M 37.890625 43.59  C 38.271233974359 43.21  38.4615384615385 42.76  38.4615384615385 42.24  C 38.4615384615385 41.72  38.271233974359 41.27  37.890625 40.89  C 37.510016025641 40.51  37.0592948717949 40.32  36.5384615384615 40.32  C 36.0176282051282 40.32  35.5669070512821 40.51  35.1862980769231 40.89  C 34.8056891025641 41.27  34.6153846153846 41.72  34.6153846153846 42.24  C 34.6153846153846 42.76  34.8056891025641 43.21  35.1862980769231 43.59  C 35.5669070512821 43.97  36.0176282051282 44.16  36.5384615384615 44.16  C 37.0592948717949 44.16  37.510016025641 43.97  37.890625 43.59  Z M 45.5829326923077 43.59  C 45.9635416666667 43.21  46.1538461538462 42.76  46.1538461538462 42.24  C 46.1538461538462 41.72  45.9635416666667 41.27  45.5829326923077 40.89  C 45.2023237179487 40.51  44.7516025641026 40.32  44.2307692307692 40.32  C 43.7099358974359 40.32  43.2592147435897 40.51  42.8786057692308 40.89  C 42.4979967948718 41.27  42.3076923076923 41.72  42.3076923076923 42.24  C 42.3076923076923 42.76  42.4979967948718 43.21  42.8786057692308 43.59  C 43.2592147435897 43.97  43.7099358974359 44.16  44.2307692307692 44.16  C 44.7516025641026 44.16  45.2023237179487 43.97  45.5829326923077 43.59  Z M 49.1586538461538 33.48  C 49.7195512820513 34.04  50 34.72  50 35.52  L 50 45.12  C 50 45.92  49.7195512820513 46.6  49.1586538461538 47.16  C 48.5977564102564 47.72  47.9166666666667 48  47.1153846153846 48  L 2.88461538461538 48  C 2.08333333333333 48  1.40224358974359 47.72  0.841346153846154 47.16  C 0.280448717948718 46.6  0 45.92  0 45.12  L 0 35.52  C 0 34.72  0.280448717948718 34.04  0.841346153846154 33.48  C 1.40224358974359 32.92  2.08333333333333 32.64  2.88461538461538 32  L 15.7151442307692 32  C 16.1358173076923 33.76  16.8419471153846 34.68  17.8335336538462 35.4  C 18.8251201923077 36.12  19.931891025641 36.48  21.1538461538462 36.48  L 28.8461538461538 36.48  C 30.068108974359 36.48  31.1748798076923 36.12  32.1664663461538 35.4  C 33.1580528846154 34.68  33.8641826923077 33.76  34.2848557692308 32  L 47.1153846153846 32  C 47.9166666666667 32.64  48.5977564102564 32.92  49.1586538461538 33.48  Z M 39.8137019230769 14.01  C 40.4346955128205 14.61  40.5749198717949 15.3  40.234375 16.08  C 39.8938301282051 16.88  39.3028846153846 17.28  38.4615384615385 17.28  L 30 17.28  L 30 30.72  C 30.7692307692308 31.24  30.5789262820513 31.69  30.1983173076923 32.07  C 29.8177083333333 32.45  29.3669871794872 32.64  28.8461538461538 32.64  L 21.1538461538462 32.64  C 20.6330128205128 32.64  20.1822916666667 32.45  19.8016826923077 32.07  C 19.4210737179487 31.69  19.2307692307692 31.24  20 30.72  L 20 17.28  L 11.5384615384615 17.28  C 10.6971153846154 17.28  10.1061698717949 16.88  9.765625 16.08  C 9.42508012820513 15.3  9.56530448717949 14.61  10.1862980769231 14.01  L 23.6478365384615 0.569999999999999  C 24.0084134615385 0.189999999999998  24.4591346153846 0  25 0  C 25.5408653846154 0  25.9915865384615 0.189999999999998  26.3521634615385 0.569999999999999  L 39.8137019230769 14.01  Z " fill-rule="nonzero" fill="#ffffff" stroke="none" fill-opacity="0" transform="matrix(1 0 0 1 1679 1599 )" />
    <path d="M 37.890625 43.59  C 38.271233974359 43.21  38.4615384615385 42.76  38.4615384615385 42.24  C 38.4615384615385 41.72  38.271233974359 41.27  37.890625 40.89  C 37.510016025641 40.51  37.0592948717949 40.32  36.5384615384615 40.32  C 36.0176282051282 40.32  35.5669070512821 40.51  35.1862980769231 40.89  C 34.8056891025641 41.27  34.6153846153846 41.72  34.6153846153846 42.24  C 34.6153846153846 42.76  34.8056891025641 43.21  35.1862980769231 43.59  C 35.5669070512821 43.97  36.0176282051282 44.16  36.5384615384615 44.16  C 37.0592948717949 44.16  37.510016025641 43.97  37.890625 43.59  Z " stroke-width="6" stroke="#ffffff" fill="none" transform="matrix(1 0 0 1 1679 1599 )" mask="url(#clip9)" />
    <path d="M 45.5829326923077 43.59  C 45.9635416666667 43.21  46.1538461538462 42.76  46.1538461538462 42.24  C 46.1538461538462 41.72  45.9635416666667 41.27  45.5829326923077 40.89  C 45.2023237179487 40.51  44.7516025641026 40.32  44.2307692307692 40.32  C 43.7099358974359 40.32  43.2592147435897 40.51  42.8786057692308 40.89  C 42.4979967948718 41.27  42.3076923076923 41.72  42.3076923076923 42.24  C 42.3076923076923 42.76  42.4979967948718 43.21  42.8786057692308 43.59  C 43.2592147435897 43.97  43.7099358974359 44.16  44.2307692307692 44.16  C 44.7516025641026 44.16  45.2023237179487 43.97  45.5829326923077 43.59  Z " stroke-width="6" stroke="#ffffff" fill="none" transform="matrix(1 0 0 1 1679 1599 )" mask="url(#clip9)" />
    <path d="M 49.1586538461538 33.48  C 49.7195512820513 34.04  50 34.72  50 35.52  L 50 45.12  C 50 45.92  49.7195512820513 46.6  49.1586538461538 47.16  C 48.5977564102564 47.72  47.9166666666667 48  47.1153846153846 48  L 2.88461538461538 48  C 2.08333333333333 48  1.40224358974359 47.72  0.841346153846154 47.16  C 0.280448717948718 46.6  0 45.92  0 45.12  L 0 35.52  C 0 34.72  0.280448717948718 34.04  0.841346153846154 33.48  C 1.40224358974359 32.92  2.08333333333333 32.64  2.88461538461538 32  L 15.7151442307692 32  C 16.1358173076923 33.76  16.8419471153846 34.68  17.8335336538462 35.4  C 18.8251201923077 36.12  19.931891025641 36.48  21.1538461538462 36.48  L 28.8461538461538 36.48  C 30.068108974359 36.48  31.1748798076923 36.12  32.1664663461538 35.4  C 33.1580528846154 34.68  33.8641826923077 33.76  34.2848557692308 32  L 47.1153846153846 32  C 47.9166666666667 32.64  48.5977564102564 32.92  49.1586538461538 33.48  Z " stroke-width="6" stroke="#ffffff" fill="none" transform="matrix(1 0 0 1 1679 1599 )" mask="url(#clip9)" />
    <path d="M 39.8137019230769 14.01  C 40.4346955128205 14.61  40.5749198717949 15.3  40.234375 16.08  C 39.8938301282051 16.88  39.3028846153846 17.28  38.4615384615385 17.28  L 30 17.28  L 30 30.72  C 30.7692307692308 31.24  30.5789262820513 31.69  30.1983173076923 32.07  C 29.8177083333333 32.45  29.3669871794872 32.64  28.8461538461538 32.64  L 21.1538461538462 32.64  C 20.6330128205128 32.64  20.1822916666667 32.45  19.8016826923077 32.07  C 19.4210737179487 31.69  19.2307692307692 31.24  20 30.72  L 20 17.28  L 11.5384615384615 17.28  C 10.6971153846154 17.28  10.1061698717949 16.88  9.765625 16.08  C 9.42508012820513 15.3  9.56530448717949 14.61  10.1862980769231 14.01  L 23.6478365384615 0.569999999999999  C 24.0084134615385 0.189999999999998  24.4591346153846 0  25 0  C 25.5408653846154 0  25.9915865384615 0.189999999999998  26.3521634615385 0.569999999999999  L 39.8137019230769 14.01  Z " stroke-width="6" stroke="#ffffff" fill="none" transform="matrix(1 0 0 1 1679 1599 )" mask="url(#clip9)" />
  </g>
</svg>